<svg t="1713789244038" class="icon" viewBox="0 0 1026 1024" version="1.1" xmlns="http://www.w3.org/2000/svg" p-id="881" width="200" height="200"><path d="M782.886406 749.688328l243.988529 243.989531-30.323143 30.323143-243.988529-243.988529z" p-id="882"></path><path d="M466.405015 932.820063a458.916962 458.916962 0 0 1-180.896344-36.919053 472.489701 472.489701 0 0 1-248.599652-248.599652 461.753805 461.753805 0 0 1 0-361.792687 472.459629 472.459629 0 0 1 248.599652-248.599652 461.753805 461.753805 0 0 1 361.792687 0 472.489701 472.489701 0 0 1 248.599652 248.599652 458.916962 458.916962 0 0 1 36.919053 180.896343 466.194517 466.194517 0 0 1-68.856089 243.888288l-34.182452-20.960559a426.027629 426.027629 0 0 0 62.941823-222.927729C892.703297 231.358053 701.462 40.126781 466.405015 40.126781S40.106733 231.358053 40.106733 466.425063s191.231273 426.298282 426.298282 426.298282a425.666759 425.666759 0 0 0 228.330761-66.309947l21.481816 33.851654a465.673259 465.673259 0 0 1-249.812577 72.555011z" p-id="883"></path><path d="M581.572813 816.108541l-37.500455-14.354625A371.89706 371.89706 0 0 1 803.026987 573.413131l9.543019 39.004082a331.740197 331.740197 0 0 0-230.997193 203.691328z" p-id="884"></path></svg>